<svg width="17" height="24" viewBox="0 0 17 24" fill="none" xmlns="http://www.w3.org/2000/svg">
<path d="M8.98438 23.25C7.54122 21.9033 6.20355 20.4269 4.98535 18.8363C3.15723 16.4475 0.986329 12.89 0.986329 9.5C0.984709 5.95943 2.93356 2.76674 5.92349 1.41175C8.91341 0.0567573 12.3551 0.806552 14.6424 3.31125C16.1466 4.94951 16.9892 7.17799 16.9825 9.5C16.9825 12.89 14.8115 16.4475 12.9834 18.8363C11.7652 20.4269 10.4275 21.9033 8.98438 23.25ZM8.98438 3.25C5.8308 3.25413 3.27526 6.04994 3.27149 9.5C3.27149 10.9575 3.87363 13.4813 6.73921 17.2325C7.44548 18.1551 8.19487 19.0371 8.98438 19.875C9.77395 19.0381 10.5237 18.1573 11.2307 17.2363C14.0951 13.48 14.6973 10.9563 14.6973 9.5C14.6935 6.04994 12.138 3.25413 8.98438 3.25ZM8.98438 13.25C7.09129 13.25 5.55664 11.5711 5.55664 9.5C5.55664 7.42893 7.09129 5.75 8.98438 5.75C10.8775 5.75 12.4121 7.42893 12.4121 9.5C12.4121 10.4946 12.051 11.4484 11.4082 12.1517C10.7653 12.8549 9.89347 13.25 8.98438 13.25Z" fill="black"/>
</svg>
